# xmcd CD database file
#
# Track frame offsets:
#	150
#	19576
#	37719
#	57145
#
# Disc length: 999 seconds
#
# Revision: 1
# Processed by: cddbd v1.5.1PL0 Copyright (c) Steve Scherf et al.
# Submitted via: CDex 1.51
#
DISCID=2003e504
DTITLE=博多あやや - 虹色片想い
DYEAR=2004
DGENRE=Vocal
TTITLE0=虹色片想い
TTITLE1=青い休日
TTITLE2=虹色片想い（カラオケ）
TTITLE3=青い休日（カラオケ）
EXTD=YEAR: 2004
EXTT0=
EXTT1=
EXTT2=
EXTT3=
PLAYORDER=
